<?xml version="1.0" encoding="utf-8"?>
<!-- Generator: Adobe Illustrator 21.1.0, SVG Export Plug-In . SVG Version: 6.00 Build 0)  -->
<svg version="1.1" id="Capa_1" xmlns="http://www.w3.org/2000/svg" xmlns:xlink="http://www.w3.org/1999/xlink" x="0px" y="0px"
	 viewBox="0 0 512 512" style="enable-background:new 0 0 512 512;" xml:space="preserve">
<style type="text/css">
	.st0{fill:#FB4848;}
	.st1{fill:#87D2F3;}
	.st2{fill:#112233;}
</style>
<g>
	<path class="st0" d="M458.7,160v213.3c0,0-10.7,53.3-53.3,53.3v74.7h-224V416c0-32-21.3-32-21.3-32H96c-17.3,0.4-31.6-13.4-32-30.7
		c0-0.4,0-0.9,0-1.3v-39.8c-8.7-8.1-20.1-12.9-32-13.5c-11.5,0.2-21.1-8.9-21.3-20.4c0-0.3,0-0.6,0-0.9L64,180.7V160
		c0-82.5,66.9-149.3,149.3-149.3h85.3C381.1,10.7,458.7,77.6,458.7,160L458.7,160z"/>
	<circle class="st0" cx="384" cy="160" r="32"/>
</g>
<g>
	<path class="st1" d="M501.3,138.7v42.7h-34.8c-2,7.7-5.1,15.1-9.1,22l24.5,24.5L451.9,258l-24.5-24.5c-6.9,4-14.3,7-22,9.1v34.8
		h-42.7v-34.8c-7.7-2-15.1-5.1-22-9.1L316.2,258L286,227.9l24.5-24.5c-4-6.9-7-14.3-9.1-22h-34.8v-42.7h34.8c2-7.7,5.1-15.1,9.1-22
		L286,92.2L316.2,62l24.5,24.5c6.9-4,14.3-7,22-9.1V42.7h42.7v34.8c7.7,2,15.1,5.1,22,9.1L451.9,62L482,92.2l-24.5,24.5
		c4,6.9,7,14.3,9.1,22H501.3z M416,160c0-17.7-14.3-32-32-32s-32,14.3-32,32s14.3,32,32,32S416,177.7,416,160z"/>
	<circle class="st1" cx="298.7" cy="330.7" r="21.3"/>
	<circle class="st1" cx="181.3" cy="277.3" r="21.3"/>
	<circle class="st1" cx="277.3" cy="106.7" r="21.3"/>
</g>
<g>
	<path class="st2" d="M192,362.7v-55.3c16.7-5.9,25.4-24.2,19.5-40.8c-5.9-16.7-24.2-25.4-40.8-19.5s-25.4,24.2-19.5,40.8
		c3.2,9.1,10.4,16.3,19.5,19.5v55.3c0.5,5.4-3.4,10.1-8.8,10.7c-0.6,0.1-1.3,0.1-1.9,0H96c-11.1,0.7-20.6-7.7-21.3-18.8
		c-0.1-0.9-0.1-1.7,0-2.6v-39.8c0-3.1-1.3-6-3.6-8C60.4,294.4,46.5,288.6,32,288c-5.1,0.6-9.8-3-10.4-8.2c0,0,0-0.1,0-0.2l51.8-93.9
		c0.9-1.6,1.3-3.3,1.3-5.1V160c0.1-76.5,62.1-138.6,138.7-138.7h42.5c5.4-0.6,10.2,3.3,10.8,8.7c0.1,0.6,0.1,1.3,0,2v44.6
		c-16.7,5.9-25.4,24.2-19.5,40.8c5.9,16.7,24.2,25.4,40.8,19.5c16.7-5.9,25.4-24.2,19.5-40.8c-3.2-9.1-10.4-16.3-19.5-19.5V32
		c0.5-17.2-13-31.5-30.2-32c-0.6,0-1.2,0-1.8,0h-42.7C125,0.1,53.4,71.7,53.3,160v17.9l-52,94.3c-0.9,1.6-1.3,3.4-1.3,5.2
		c-0.5,17.2,13,31.5,30.2,32c0.6,0,1.2,0,1.8,0c7.8,0.4,15.2,3.2,21.3,8V352c-0.7,22.9,17.3,42,40.2,42.7c0.8,0,1.6,0,2.4,0h64
		c17.2,0.5,31.5-13,32-30.2C192,363.9,192,363.3,192,362.7L192,362.7z M277.3,117.3c-5.9,0-10.7-4.8-10.7-10.7S271.5,96,277.3,96
		s10.7,4.8,10.7,10.7C288,112.6,283.2,117.3,277.3,117.3z M181.3,266.7c5.9,0,10.7,4.8,10.7,10.7s-4.8,10.7-10.7,10.7
		c-5.9,0-10.7-4.8-10.7-10.7C170.7,271.5,175.5,266.7,181.3,266.7z"/>
	<path class="st2" d="M437.3,320H328.7c-5.9-16.7-24.2-25.4-40.8-19.5c-16.7,5.9-25.4,24.2-19.5,40.8c5.9,16.7,24.2,25.4,40.8,19.5
		c9.1-3.2,16.3-10.4,19.5-19.5h108.6c5.4-0.5,10.1,3.4,10.7,8.8c0.1,0.6,0.1,1.3,0,1.9v20.2c-1.5,6.4-11.8,43.8-42.7,43.8
		c-5.9,0-10.7,4.8-10.7,10.7v64H192v-32h-21.3v42.7c0,5.9,4.8,10.7,10.7,10.7h224c5.9,0,10.7-4.8,10.7-10.7v-65
		c33.3-6.3,49.2-41.5,53.1-60.9c0.1-0.7,0.2-1.4,0.2-2.1V352c0.5-17.2-13-31.5-30.2-32C438.6,320,438,320,437.3,320z M298.7,341.3
		c-5.9,0-10.7-4.8-10.7-10.7s4.8-10.7,10.7-10.7s10.7,4.8,10.7,10.7S304.6,341.3,298.7,341.3z"/>
	<path class="st2" d="M501.3,128h-26.9c-1.1-3.2-2.4-6.3-3.9-9.3l19-19c4.2-4.2,4.2-10.9,0-15.1l-30.2-30.2
		c-4.2-4.2-10.9-4.2-15.1,0l-19,19c-3-1.4-6.1-2.7-9.3-3.9V42.7c0-5.9-4.8-10.7-10.7-10.7h-42.7c-5.9,0-10.7,4.8-10.7,10.7v26.9
		c-5.8,2.1-11.4,4.7-16.7,7.8l10.8,18.4c6-3.5,12.5-6.2,19.2-7.9c4.7-1.2,8-5.5,8-10.3V53.3h21.3v24.1c0,4.9,3.3,9.1,8,10.3
		c6.7,1.7,13.2,4.4,19.2,7.9c4.2,2.5,9.5,1.8,13-1.6L451.9,77L467,92.1l-17.1,17.1c-3.4,3.4-4.1,8.8-1.7,13c3.5,6,6.2,12.5,8,19.2
		c1.2,4.7,5.5,8,10.3,8h24.1v21.3h-24.1c-4.9,0-9.1,3.3-10.3,8c-1.7,6.7-4.4,13.2-8,19.2c-2.5,4.2-1.8,9.5,1.7,13l17.1,17.1
		L451.9,243l-17.1-17.1c-3.4-3.4-8.8-4.1-13-1.6c-6,3.5-12.5,6.2-19.2,7.9c-4.7,1.2-8,5.5-8,10.3v24.1h-21.3v-24.1
		c0-4.9-3.3-9.1-8-10.3c-6.7-1.7-13.2-4.4-19.2-7.9c-4.2-2.5-9.5-1.8-13,1.6L316.1,243L301,227.9l17.1-17.1c3.4-3.4,4.1-8.8,1.7-13
		c-3.5-6-6.2-12.5-8-19.2c-1.2-4.7-5.5-8-10.3-8h-34.8V192h26.9c1.1,3.2,2.4,6.3,3.9,9.3l-19,19c-4.2,4.2-4.2,10.9,0,15.1l30.2,30.2
		c4.2,4.2,10.9,4.2,15.1,0l19-19c3,1.4,6.1,2.7,9.3,3.9v26.9c0,5.9,4.8,10.7,10.7,10.7h42.7c5.9,0,10.7-4.8,10.7-10.7v-26.9
		c3.2-1.1,6.3-2.4,9.3-3.9l19,19c4.2,4.2,10.9,4.2,15.1,0l30.2-30.2c4.2-4.2,4.2-10.9,0-15.1l-19-19c1.4-3,2.7-6.1,3.9-9.3h26.9
		c5.9,0,10.7-4.8,10.7-10.7v-42.7C512,132.8,507.2,128,501.3,128L501.3,128z"/>
	<path class="st2" d="M384,202.7c23.6,0,42.7-19.1,42.7-42.7s-19.1-42.7-42.7-42.7s-42.7,19.1-42.7,42.7S360.4,202.7,384,202.7z
		 M384,138.7c11.8,0,21.3,9.6,21.3,21.3s-9.6,21.3-21.3,21.3s-21.3-9.6-21.3-21.3S372.2,138.7,384,138.7z"/>
	<path class="st2" d="M106.7,170.7v10.7c-0.2,11.5,8.9,21.1,20.4,21.3c0.3,0,0.6,0,0.9,0h32c11.5,0.2,21.1-8.9,21.3-20.4
		c0-0.3,0-0.6,0-0.9v-10.7H160v10.7h-32v-10.7H106.7z"/>
	<path class="st2" d="M224,170.7h21.3V192H224V170.7z"/>
	<path class="st2" d="M224,213.3h21.3v21.3H224V213.3z"/>
	<path class="st2" d="M170.7,416H192v21.3h-21.3V416z"/>
</g>
</svg>
