<?xml version="1.0" encoding="utf-8"?>
<!-- Generator: Adobe Illustrator 21.1.0, SVG Export Plug-In . SVG Version: 6.00 Build 0)  -->
<svg version="1.1" id="Layer_1" xmlns="http://www.w3.org/2000/svg" xmlns:xlink="http://www.w3.org/1999/xlink" x="0px" y="0px"
	 viewBox="0 0 490.4 490.4" style="enable-background:new 0 0 490.4 490.4;" xml:space="preserve">
<style type="text/css">
	.st0{fill:#FB4848;}
	.st1{fill:#112233;}
</style>
<circle class="st0" cx="166.7" cy="164.1" r="137.1"/>
<path class="st1" d="M490.4,377.6c0-0.3,0-0.6-0.1-0.9c0-0.3-0.1-0.6-0.2-0.9s-0.1-0.6-0.2-0.8c-0.1-0.3-0.2-0.5-0.4-0.8
	c-0.1-0.3-0.2-0.5-0.4-0.8c-0.1-0.3-0.3-0.5-0.5-0.7s-0.3-0.5-0.5-0.7s-0.4-0.4-0.7-0.6c-0.2-0.2-0.4-0.4-0.6-0.6s-0.5-0.3-0.8-0.5
	c-0.2-0.1-0.4-0.3-0.7-0.4L375,315.5c-0.3-0.2-0.6-0.3-1-0.4c-1.9-0.7-47.4-16.6-84.6,0.1l-82.1,29.7c-0.2,0.1-0.5,0.2-0.7,0.3
	c-11.8,5.4-18,17.5-15.5,30.2c2.5,12.6,12.7,21.5,25.5,22.1c0.1,0,0.1,0,0.2,0c0.8,0,4.4-0.2,41.8-2.6c16.3-1,33.1-2.1,34.6-2.2
	c4.7-0.2,8.6-4,8.7-8.8c0.1-5-3.8-9.2-8.9-9.3c-0.5,0-0.5,0-35.5,2.2c-17.5,1.1-37.1,2.4-40.4,2.6c-6.3-0.5-7.8-5.8-8.2-7.4
	c-0.7-3.4,0.3-7.9,5-10.2l82-29.7c0.2-0.1,0.4-0.2,0.7-0.3c28.8-13.1,66.4-1.3,70.9,0.1l49.1,24.2l-27,63.7
	c-13.3-8.2-29.5-10.4-44.5-5.9L234.9,447c-13.1,4-27.6,2.5-39.7-4.1L22.6,349.4c-6.2-3.4-4.2-9.3-3.7-10.5c0.6-1.6,3.2-6.6,9.5-4.9
	l134.1,44.7c4.7,1.6,9.9-1,11.5-5.7c1.6-4.8-1-9.9-5.7-11.5L33.9,316.6c-0.2-0.1-0.3-0.1-0.5-0.1c-13.3-3.6-26.2,2.8-31.3,15.6
	C-3.1,345,1.8,358.6,14,365.3l172.7,93.8c16.3,8.9,35.8,10.9,53.5,5.5l110.2-33.1c10.1-3,21-1.6,29.9,4.1l56.2,35.4
	c0.3,0.2,0.5,0.3,0.8,0.4c0.1,0,0.1,0.1,0.2,0.1h0.1c0.1,0.1,0.2,0.1,0.4,0.1c0.2,0.1,0.5,0.2,0.7,0.3c0.1,0,0.3,0.1,0.4,0.1
	c0.2,0.1,0.5,0.1,0.7,0.2c0.1,0,0.3,0,0.4,0.1c0.4,0,0.7,0.1,1.1,0.1l0,0l0,0l0,0l0,0c0.4,0,0.8,0,1.2-0.1c0.1,0,0.3,0,0.4-0.1
	c0.3,0,0.5-0.1,0.8-0.2c0.1,0,0.3-0.1,0.4-0.1c0.2-0.1,0.5-0.2,0.7-0.3c0.1-0.1,0.3-0.1,0.4-0.2c0.2-0.1,0.4-0.2,0.7-0.4
	c0.1-0.1,0.3-0.2,0.4-0.2c0.2-0.1,0.4-0.3,0.6-0.4c0.1-0.1,0.3-0.2,0.4-0.3c0.2-0.2,0.3-0.3,0.5-0.5c0.1-0.1,0.2-0.2,0.4-0.4
	c0.2-0.2,0.3-0.4,0.4-0.6c0.1-0.1,0.2-0.3,0.3-0.4c0,0,0-0.1,0.1-0.1c0-0.1,0.1-0.2,0.1-0.2c0.1-0.2,0.3-0.5,0.4-0.8l40-85.2
	c0.1-0.3,0.2-0.5,0.3-0.8c0.1-0.3,0.2-0.6,0.3-0.8c0.1-0.3,0.1-0.6,0.1-0.9s0.1-0.6,0.1-0.9C490.4,378.2,490.4,377.9,490.4,377.6z
	 M469.4,382.2l-31.9,67.9l-32.3-20.4l27.7-65.4L469.4,382.2z"/>
<path class="st1" d="M166.7,310.2c80.6,0,146.1-65.6,146.1-146.1S247.2,17.9,166.7,17.9S20.5,83.5,20.5,164.1
	S86.1,310.2,166.7,310.2z M166.7,36.1c70.6,0,128,57.4,128,128s-57.4,128-128,128s-128-57.4-128-128S96.1,36.1,166.7,36.1z"/>
<path class="st1" d="M223.7,121h-19.3c-2-7.6-5.5-14.7-10.4-20.9h29.8c5.8,0,10.4-4.7,10.4-10.4c0-5.8-4.7-10.4-10.4-10.4H122.4
	c-5.8,0-10.4,4.7-10.4,10.4c0,5.8,4.7,10.4,10.4,10.4h29.3c13.5,0.6,25.6,8.7,31.3,20.9h-60.6c-5.8,0-10.4,4.7-10.4,10.4
	c0,5.8,4.7,10.4,10.4,10.4H183c-1.8,5.4-4.7,10.3-8.4,14.6c-5.9,6.6-14.1,10.7-23,11.5h-29.3c-4.2-0.2-8.1,2-9.9,5.7
	c-1.6,4-0.5,8.6,2.6,11.5l72.6,68.4c2.1,1.6,4.7,2.5,7.3,2.6c2.8,0,5.4-1.2,7.3-3.1c3.9-3.4,4.3-9.4,0.8-13.3
	c-0.3-0.3-0.5-0.6-0.8-0.8l-53.8-50.2h3.1c14.6-0.7,28.3-7.1,38.1-17.8c7.5-8.2,12.6-18.3,14.6-29.3h19.3c5.8,0,10.4-4.7,10.4-10.4
	C234.2,125.7,229.5,121,223.7,121z"/>
</svg>
