<?xml version="1.0" encoding="utf-8"?>
<!-- Generator: Adobe Illustrator 21.1.0, SVG Export Plug-In . SVG Version: 6.00 Build 0)  -->
<svg version="1.1" id="Capa_1" xmlns="http://www.w3.org/2000/svg" xmlns:xlink="http://www.w3.org/1999/xlink" x="0px" y="0px"
	 viewBox="0 0 512 512" style="enable-background:new 0 0 512 512;" xml:space="preserve">
<style type="text/css">
	.st0{fill:#F29F5C;}
	.st1{fill:#D37D42;}
	.st2{fill:#F9C295;}
	.st3{fill:#E59F6A;}
	.st4{fill:#5C9CEE;}
	.st5{fill:#3580D3;}
	.st6{fill:#FB4848;}
	.st7{fill:#7C1C1C;}
	.st8{fill:#EBEEF2;}
	.st9{fill:#112233;}
</style>
<g>
	<path class="st0" d="M418.3,245.4l-13-105.7l-24.4,3l0,0l-47.3-26.6c-5-2.8-10.8-4.1-16.6-3.5l-74.6,6.9c-9.2,0.8-17.4,6.1-22,14
		L167.9,224c-3.9,6.7-0.8,15.3,6.4,18l2.2,0.8c4.1,1.6,8.4,2.5,12.6,2.8l-6.7,5.8L169.1,263l-37.9,32.3c-6.7,5.9-7.4,16.1-1.6,22.9
		l3.8,4.4c7.6,8.7,20.7,9.6,29.4,2l14.5,16.6c4.7,5.4,11.6,7.8,18.2,7c4-0.5,7.9-2.1,11.1-5l14.5,16.6c4.7,5.4,11.6,7.8,18.3,7
		c4-0.5,7.9-2.1,11.1-5l7.9,6.8c7.6,8.7,20.7,9.6,29.4,2l10.7-9.3l89.9-70l0.1-0.1l35.5,0L418.3,245.4z"/>
	<path class="st1" d="M379.7,264.1L379.7,264.1l-90,70.1l-10.7,9.3c-8.7,7.6-21.8,6.7-29.4-2l-7.9-6.8c-3.2,2.8-7.1,4.5-11.1,5
		c-6.6,0.8-13.5-1.6-18.3-7l-14.5-16.6c-3.2,2.8-7.1,4.5-11.1,5c-6.6,0.8-13.5-1.6-18.2-7l-14.5-16.6c-7.4,6.5-18.1,6.7-25.8,1.2
		c-3.9,5.9-3.6,14,1.3,19.6l3.8,4.4c7.6,8.7,20.7,9.6,29.4,2l14.5,16.6c4.7,5.4,11.6,7.8,18.2,7c4-0.5,7.9-2.1,11.1-5l14.5,16.6
		c4.7,5.4,11.6,7.8,18.3,7c4-0.5,7.9-2.1,11.1-5l7.9,6.8c7.6,8.7,20.7,9.6,29.4,2l10.7-9.3l89.9-70l0.1-0.1l35.5,0l-3.9-31.9
		L379.7,264.1z"/>
</g>
<g>
	<path class="st2" d="M396.1,309.8l-48.2-41.5l-13.4-11.5l-9.6-8.3l-41.2-35.5l4.8-40.5c1.6-13.7-7-26.5-20.3-30.2l-89.8-24.9
		c-9.5-2.6-19.5,1.8-24,10.6L143,150l-48.5-3.3L82.1,252.4l-5.4,45.9l47.2,3.1l0.1,0.1l98.6,85l10.7,9.3c8.7,7.5,21.9,6.5,29.4-2.2
		l14.4-16.7c3.3,2.8,7.2,4.4,11.1,4.9c6.6,0.8,13.5-1.6,18.2-7.1l14.4-16.7c3.3,2.8,7.2,4.5,11.1,4.9c6.6,0.8,13.5-1.7,18.2-7.1
		l14.4-16.7c8.7,7.5,21.9,6.5,29.4-2.2l3.8-4.4C403.6,325.8,402.9,315.6,396.1,309.8z"/>
	<path class="st3" d="M396.1,309.8l-14.7-12.6c4.8,6.3,4.7,15.3-0.7,21.6l-4.1,4.7c-8,9.2-21.9,10.3-31.2,2.3l-15.3,17.7
		c-5,5.8-12.3,8.4-19.3,7.5c-4.2-0.5-8.4-2.2-11.8-5.2l-15.3,17.7c-5,5.8-12.3,8.3-19.3,7.5c-4.2-0.5-8.4-2.2-11.8-5.2l-15.3,17.7
		c-2.9,3.3-6.5,5.6-10.5,6.8l6.5,5.6c8.7,7.5,21.9,6.5,29.4-2.2l14.4-16.7c3.3,2.8,7.2,4.4,11.1,4.9c6.6,0.8,13.5-1.6,18.2-7.1
		l14.4-16.7c3.3,2.8,7.2,4.5,11.1,4.9c6.6,0.8,13.5-1.7,18.2-7.1l14.4-16.7c8.7,7.5,21.9,6.5,29.4-2.2l3.8-4.4
		C403.6,325.8,402.9,315.6,396.1,309.8z"/>
</g>
<g>
	<g>
		<path class="st0" d="M126.4,301.4l-5.7,7.5c-6.2,8.2-4.6,19.9,3.6,26.1l0,0c8.2,6.2,19.9,4.6,26.1-3.6l5.7-7.5
			c6.2-8.2,4.6-19.9-3.6-26.1l0,0C144.3,291.6,132.6,293.2,126.4,301.4z"/>
		<path class="st0" d="M161.2,317.2l-10.8,14.2c-6.2,8.2-4.6,19.9,3.6,26.1l0,0c8.2,6.2,19.9,4.6,26.1-3.6l10.8-14.2
			c6.2-8.2,4.6-19.9-3.6-26.1l0,0C179.1,307.4,167.4,309,161.2,317.2z"/>
		<path class="st0" d="M194.8,334.6L180.2,354c-6.2,8.2-4.6,19.9,3.6,26.1l0,0c8.2,6.2,19.9,4.6,26.1-3.6l14.7-19.4
			c6.2-8.2,4.6-19.9-3.6-26.1l0,0C212.8,324.8,201.1,326.4,194.8,334.6z"/>
		<path class="st0" d="M225.4,356l-15.5,20.5c-6.2,8.2-4.6,19.9,3.6,26.1l0,0c8.2,6.2,19.9,4.6,26.1-3.6l15.5-20.5
			c6.2-8.2,4.6-19.9-3.6-26.1l0,0C243.4,346.2,231.7,347.8,225.4,356z"/>
	</g>
</g>
<path class="st0" d="M380.9,142.7l-47.3-26.6c-5-2.8-10.8-4.1-16.6-3.5l-74.6,6.9c-9.2,0.8-17.4,6.1-22,14L167.9,224
	c-3.9,6.7-0.8,15.3,6.4,18l2.2,0.8c19.3,7.3,41,1.1,53.6-15.3l20.1-26.2c0,0,48.4,56.1,101.7-9.4"/>
<path class="st4" d="M479.8,105.6l24.7,200.8l-57.8,7.1c-10.9,1.3-20.9-6.4-22.2-17.3l-19.8-161.2c-1.3-10.9,6.4-20.9,17.3-22.2
	L479.8,105.6z"/>
<path class="st5" d="M445.7,290.8c-11.2,1.4-21.5-6-24-16.8l2.7,22.2c1.3,10.9,11.3,18.7,22.2,17.3l57.8-7.1l-2.8-22.4L445.7,290.8z
	"/>
<path class="st6" d="M32.2,105.6L7.5,306.3l57.8,7.1c10.9,1.3,20.9-6.4,22.2-17.3l19.8-161.2c1.3-10.9-6.4-20.9-17.3-22.2
	L32.2,105.6z"/>
<path class="st7" d="M66.6,290.3l-56.3-6.9l-2.8,23l57.8,7.1c10.9,1.3,20.9-6.4,22.2-17.3l2.1-17C85,286.8,76.1,291.4,66.6,290.3z"
	/>
<g>
	<circle class="st8" cx="464" cy="273.2" r="14.5"/>
	<circle class="st8" cx="47.2" cy="273.2" r="14.5"/>
</g>
<g>
	<path class="st9" d="M256.1,346.4c-6.1-4.6-13.6-6.2-20.6-4.8c-1.1-6.6-4.6-12.5-10-16.6c-5.6-4.2-12.4-6-19.4-5.1
		c-1.7,0.2-3.4,0.6-5,1.2c-1.5-5.2-4.7-10-9.3-13.5c-7.7-5.8-17.5-6.7-25.8-3.3c-1.7-5-4.8-9.3-9-12.6c-5.6-4.2-12.5-6-19.4-5.1
		c-5.6,0.8-10.7,3.3-14.7,7.2l-27.5-1.8l16.8-136.7l30.1,2c0.2,0,0.3,0,0.5,0c2.8,0,5.4-1.6,6.7-4.1l11.3-22
		c2.9-5.6,9.3-8.4,15.4-6.7l16.8,4.6c4,1.1,8.1-1.2,9.2-5.2c1.1-4-1.2-8.1-5.2-9.2l-16.8-4.6c-12.9-3.6-26.6,2.5-32.7,14.4l-9,17.7
		l-24.4-1.7l0.6-4.7c1.8-15-8.9-28.7-23.9-30.6l-57.8-7.1c-4.1-0.5-7.9,2.4-8.4,6.5c-0.5,4.1,2.4,7.9,6.5,8.4l57.8,7.1
		c3.3,0.4,6.2,2.1,8.3,4.7s2.9,5.9,2.5,9.2L80.1,295.2C79.2,302,73,306.8,66.2,306l-57.8-7.1c-4.1-0.5-7.9,2.4-8.4,6.5
		c-0.5,4.1,2.4,7.9,6.5,8.4l57.8,7.1c1.1,0.1,2.3,0.2,3.4,0.2c10.1,0,19.3-5.6,24-14.2l20.5,1.4c-2.5,4.8-3.4,10.1-2.7,15.5
		c1,6.9,4.6,13.1,10.1,17.3c4.6,3.5,10.1,5.3,15.7,5.3c1.2,0,2.4-0.1,3.6-0.3c0.1,0,0.2,0,0.2,0c0,0.1,0,0.2,0,0.2
		c1,6.9,4.6,13.1,10.1,17.3c4.7,3.6,10.3,5.3,15.8,5.3c1.3,0,2.6-0.1,3.9-0.3c0.9,6.7,4.3,13.1,10.1,17.5c4.7,3.6,10.3,5.3,15.8,5.3
		c1.3,0,2.6-0.1,3.8-0.3c0,0.1,0,0.2,0,0.3c1,6.9,4.6,13.1,10.1,17.3c4.6,3.5,10.1,5.3,15.7,5.3c1.2,0,2.4-0.1,3.6-0.3
		c6.9-1,13.1-4.5,17.3-10.1l15.5-20.5C269.9,371.6,267.6,355.1,256.1,346.4z M137.1,331.2c-3,0.4-5.9-0.4-8.3-2.2
		c-2.4-1.8-3.9-4.4-4.3-7.4c-0.4-3,0.4-5.9,2.2-8.3l5.7-7.5c1.8-2.4,4.4-3.9,7.4-4.3c3-0.4,5.9,0.4,8.3,2.2c2.4,1.8,3.9,4.4,4.3,7.4
		s-0.4,5.9-2.2,8.3l-5.7,7.5C142.6,329.3,140,330.8,137.1,331.2z M158.6,351.6c-2.4-1.8-3.9-4.4-4.3-7.4c-0.4-3,0.4-5.9,2.2-8.3
		l5.7-7.5c0,0,0,0,0,0l5-6.7c2.2-2.9,5.5-4.4,8.9-4.4c2.3,0,4.7,0.7,6.7,2.3c4.9,3.7,5.9,10.7,2.2,15.6l-10.8,14.2
		C170.5,354.4,163.5,355.3,158.6,351.6z M188.3,374.1c-2.4-1.8-3.9-4.4-4.3-7.4c-0.4-3,0.4-5.9,2.2-8.3c0,0,0,0,0,0l10.8-14.2l0,0
		l3.9-5.2c1.8-2.4,4.4-3.9,7.4-4.3c3-0.4,5.9,0.4,8.3,2.2c4.9,3.7,5.9,10.7,2.2,15.6L203.9,372c0,0,0,0,0,0
		C200.2,376.9,193.2,377.9,188.3,374.1z M249.2,374l-15.5,20.5c-1.8,2.4-4.4,3.9-7.4,4.3c-3,0.4-5.9-0.4-8.3-2.2s-3.9-4.4-4.3-7.4
		c-0.4-3,0.4-5.9,2.2-8.3l14.7-19.4c0,0,0,0,0,0l0.8-1.1c1.8-2.4,4.4-3.9,7.4-4.3c3-0.4,5.9,0.4,8.3,2.2
		C252,362.1,252.9,369.1,249.2,374z"/>
	<path class="st9" d="M511.9,305.4c-0.5-4.1-4.2-7-8.4-6.5l-57.8,7.1c-6.8,0.8-13-4-13.9-10.8l-0.6-4.8l0,0l-0.1-1.1L412.1,134
		c-0.4-3.3,0.5-6.5,2.5-9.2c2-2.6,5-4.3,8.3-4.7l57.8-7.1c4.1-0.5,7-4.2,6.5-8.4c-0.5-4.1-4.2-7-8.4-6.5l-57.8,7.1
		c-14.1,1.7-24.4,14-24.1,27.9l-14.6,1.8l-45.1-25.4c-6.4-3.6-13.6-5.1-20.9-4.5c0,0,0,0,0,0l-13.6,1.3c-4.1,0.4-7.2,4-6.8,8.2
		c0.4,4.1,4,7.2,8.2,6.8l13.6-1.3c4.3-0.4,8.5,0.5,12.2,2.6l46.8,26.3c1.5,1,3.2,1.4,5,1.2l16.9-2.1l12.4,100.8l4.3,34.9l-27,0
		c-1.8,0-3.5,0.6-4.9,1.8l-2.1,1.6l-67.8-58.4c15.5-4.5,30.3-15.2,44.1-32.2c2.6-3.2,2.1-7.9-1.1-10.6c-3.2-2.6-7.9-2.1-10.6,1.1
		c-15.4,18.9-31.7,28.7-48.2,29c-24.1,0.5-41.9-19.6-42-19.7c-1.5-1.7-3.6-2.6-5.9-2.6c-2.3,0.1-4.4,1.1-5.7,2.9L224.1,223
		c-10.6,13.8-28.7,19-45,12.8l-2.2-0.8c-1.9-0.7-2.7-2.2-2.9-3s-0.6-2.4,0.4-4.2l52.6-90.5c3.4-5.9,9.5-9.7,16.2-10.3l31.1-2.9
		c4.1-0.4,7.2-4,6.8-8.2c-0.4-4.1-4-7.2-8.2-6.8l-31.1,2.9c-11.6,1.1-22,7.7-27.8,17.7l-52.6,90.5c-3,5.1-3.5,11.2-1.6,16.8
		s6.3,9.9,11.8,12l2.2,0.8c6.3,2.4,12.9,3.6,19.3,3.6c16.5,0,32.3-7.5,42.9-21.3l15-19.6c8.1,6.9,23.1,17.2,42.3,18.5l97.9,84.4
		c1.8,1.5,2.8,3.6,3,5.9s-0.6,4.6-2.1,6.3l-3.8,4.4c-4.8,5.6-13.2,6.2-18.8,1.4c-0.3-0.3-0.6-0.5-1-0.7l-25.4-21.9
		c-3.1-2.7-7.9-2.4-10.6,0.8c-2.7,3.1-2.4,7.9,0.8,10.6l20.7,17.8l-9.4,10.9c-2.9,3.4-7.3,5.1-11.7,4.5c-2.6-0.3-5.1-1.4-7.1-3.1
		c0,0-0.1-0.1-0.1-0.1L302,332c-3.1-2.7-7.9-2.4-10.6,0.8c-2.7,3.1-2.4,7.9,0.8,10.6l18.1,15.6l-9.5,11c-2.9,3.4-7.3,5.1-11.7,4.5
		c-4.1-0.5-7.8,2.5-8.3,6.6c-0.5,4.1,2.5,7.8,6.6,8.3c1.1,0.1,2.2,0.2,3.3,0.2c8.2,0,16-3.5,21.5-9.8l10.1-11.8
		c2.8,1.3,5.7,2.2,8.8,2.5c9.4,1.1,18.6-2.5,24.8-9.6l10.2-11.8c11.2,5.3,25.1,2.8,33.6-7.1l3.8-4.4c4.1-4.8,6.1-10.9,5.7-17.2
		c-0.5-6.3-3.4-12.1-8.2-16.2l-6.2-5.3l22.5,0c2.5,13,13.9,22.3,26.9,22.3c1.1,0,2.2-0.1,3.4-0.2l57.8-7.1
		C509.5,313.2,512.5,309.5,511.9,305.4z"/>
	<path class="st9" d="M464,251.2c-12.1,0-22,9.9-22,22s9.9,22,22,22s22-9.9,22-22S476.1,251.2,464,251.2z M464,280.2
		c-3.9,0-7-3.1-7-7s3.1-7,7-7s7,3.1,7,7S467.9,280.2,464,280.2z"/>
	<path class="st9" d="M69.2,273.2c0-12.1-9.9-22-22-22s-22,9.9-22,22s9.9,22,22,22S69.2,285.4,69.2,273.2z M40.2,273.2
		c0-3.9,3.1-7,7-7s7,3.1,7,7s-3.1,7-7,7S40.2,277.1,40.2,273.2z"/>
</g>
</svg>
