<?xml version="1.0" encoding="utf-8"?>
<!-- Generator: Adobe Illustrator 21.1.0, SVG Export Plug-In . SVG Version: 6.00 Build 0)  -->
<svg version="1.1" id="Layer_1" xmlns="http://www.w3.org/2000/svg" xmlns:xlink="http://www.w3.org/1999/xlink" x="0px" y="0px"
	 viewBox="0 0 490.4 490.4" style="enable-background:new 0 0 490.4 490.4;" xml:space="preserve">
<style type="text/css">
	.st0{fill:#FB4848;}
	.st1{fill:#112233;}
</style>
<circle class="st0" cx="323.7" cy="164.1" r="137.1"/>
<path class="st1" d="M0.1,378.5c0,0.3,0.1,0.6,0.1,0.9s0,0.6,0.1,0.9c0.1,0.2,0.2,0.5,0.3,0.8c0.1,0.3,0.2,0.5,0.3,0.8l40,85.2
	c0.1,0.3,0.3,0.6,0.4,0.8c0,0,0.1,0.1,0.1,0.2c0.1,0,0.1,0.1,0.1,0.1c0.1,0.1,0.2,0.3,0.3,0.4c0.1,0.2,0.2,0.4,0.4,0.6
	c0.2,0.2,0.3,0.3,0.4,0.4c0.2,0.2,0.3,0.3,0.5,0.5c0.1,0.1,0.3,0.2,0.4,0.3c0.2,0.1,0.4,0.3,0.6,0.4c0.1,0,0.3,0.1,0.4,0.2
	c0.3,0.2,0.5,0.3,0.7,0.4c0.1,0.1,0.3,0.1,0.4,0.2c0.2,0.1,0.5,0.2,0.7,0.3c0.1,0,0.3,0.1,0.4,0.1c0.3,0.1,0.5,0.2,0.8,0.2
	c0.1,0.1,0.3,0.1,0.4,0.1c0.4,0.1,0.8,0.1,1.2,0.1l0,0l0,0l0,0l0,0c0.4,0,0.7-0.1,1.1-0.1c0.1-0.1,0.3-0.1,0.4-0.1
	c0.2-0.1,0.5-0.1,0.7-0.2c0.1,0,0.3-0.1,0.4-0.1c0.2-0.1,0.5-0.2,0.7-0.3c0.2,0,0.3,0,0.4-0.1h0.1c0.1,0,0.1-0.1,0.2-0.1
	c0.3-0.1,0.5-0.2,0.8-0.4l56.2-35.4c8.9-5.7,19.8-7.1,29.9-4.1l110.2,33.1c17.7,5.4,37.2,3.4,53.5-5.5l172.7-93.8
	c12.2-6.7,17.1-20.3,11.9-33.2c-5.1-12.8-18-19.2-31.3-15.6c-0.2,0-0.3,0-0.5,0.1l-134.4,44.9c-4.7,1.6-7.3,6.7-5.7,11.5
	c1.6,4.7,6.8,7.3,11.5,5.7L462,334c6.3-1.7,8.9,3.3,9.5,4.9c0.5,1.2,2.5,7.1-3.7,10.5l-172.6,93.5c-12.1,6.6-26.6,8.1-39.7,4.1
	l-110.2-33.1c-15-4.5-31.2-2.3-44.5,5.9l-27-63.7l49.1-24.2c4.5-1.4,42.1-13.2,70.9-0.1c0.3,0.1,0.5,0.2,0.7,0.3l82,29.7
	c4.7,2.3,5.7,6.8,5,10.2c-0.4,1.6-1.9,6.9-8.2,7.4c-3.3-0.2-22.9-1.5-40.4-2.6c-35-2.2-35-2.2-35.5-2.2c-5.1,0.1-9,4.3-8.9,9.3
	c0.1,4.8,4,8.6,8.7,8.8c1.5,0.1,18.3,1.2,34.6,2.2c37.4,2.4,41,2.6,41.8,2.6c0.1,0,0.1,0,0.2,0c12.8-0.6,23-9.5,25.5-22.1
	c2.5-12.7-3.7-24.8-15.5-30.2c-0.2-0.1-0.5-0.2-0.7-0.3L201,315.2c-37.2-16.7-82.7-0.8-84.6-0.1c-0.4,0.1-0.7,0.2-1,0.4L5.1,369.9
	c-0.3,0.1-0.5,0.3-0.7,0.4c-0.3,0.2-0.6,0.3-0.8,0.5s-0.4,0.4-0.6,0.6c-0.3,0.2-0.5,0.4-0.7,0.6s-0.3,0.5-0.5,0.7s-0.4,0.4-0.5,0.7
	c-0.2,0.3-0.3,0.5-0.4,0.8c-0.2,0.3-0.3,0.5-0.4,0.8c-0.1,0.2-0.1,0.5-0.2,0.8s-0.2,0.6-0.2,0.9C0,377,0,377.3,0,377.6
	C0,377.9,0,378.2,0.1,378.5z M57.5,364.3l27.7,65.4l-32.3,20.4L21,382.2L57.5,364.3z"/>
<path class="st1" d="M469.9,164.1c0-80.6-65.7-146.2-146.2-146.2S177.6,83.6,177.6,164.1s65.5,146.1,146.1,146.1
	S469.9,244.7,469.9,164.1z M451.7,164.1c0,70.6-57.4,128-128,128s-128-57.4-128-128s57.4-128,128-128S451.7,93.5,451.7,164.1z"/>
<path class="st1" d="M347.3,130h15.2c4.2,0,7.7,3.4,7.7,7.7c0,4.2-3.4,7.7-7.7,7.7h-15.2c-1.4,8.2-5.4,15.7-11.3,21.5
	c-7.7,7.7-18.1,12.1-28.9,12.2h-2.9l41.4,39c0,0.1,0.1,0.1,0.2,0.2c2.9,2.8,3,7.5,0.2,10.4c-2.8,3.1-7.7,3.3-10.8,0.4l-55.4-52.4
	c-1.6-1.5-2.4-3.6-2.4-5.7c0.2-4.1,3.6-7.3,7.7-7.1h22.2c6.8-0.1,13.3-2.8,18.1-7.7c2.9-3,5.1-6.7,6.4-10.6H285
	c-4.2,0-7.7-3.4-7.7-7.7s3.4-7.7,7.7-7.7h46.6c-3.5-10.5-13.3-17.5-24.4-17.6H285c-4.2,0-7.7-3.4-7.7-7.7c0-4.2,3.4-7.7,7.7-7.7
	h77.5c4.2,0,7.7,3.4,7.7,7.7c0,4.2-3.4,7.7-7.7,7.7H339C343.3,117.4,346.3,123.5,347.3,130z"/>
</svg>
