<?xml version="1.0" encoding="utf-8"?>
<!-- Generator: Adobe Illustrator 21.1.0, SVG Export Plug-In . SVG Version: 6.00 Build 0)  -->
<svg version="1.1" id="Layer_1" xmlns="http://www.w3.org/2000/svg" xmlns:xlink="http://www.w3.org/1999/xlink" x="0px" y="0px"
	 viewBox="0 0 512 512" style="enable-background:new 0 0 512 512;" xml:space="preserve">
<style type="text/css">
	.st0{fill:#FB4848;}
	.st1{fill:#0FACF3;}
	.st2{fill:#112234;}
</style>
<g>
	<path class="st0" d="M256,433.6c-7.7,0-13.9-6.2-13.9-13.9V318.2c0-7.7,6.2-13.9,13.9-13.9c7.7,0,13.9,6.2,13.9,13.9v101.5
		C269.9,427.4,263.7,433.6,256,433.6z"/>
	<path class="st0" d="M498.1,433.6H13.9c-7.7,0-13.9-6.2-13.9-13.9s6.2-13.9,13.9-13.9h484.2c7.7,0,13.9,6.2,13.9,13.9
		C512,427.4,505.8,433.6,498.1,433.6z"/>
	<path class="st0" d="M358.7,322.4H153.3c-24.7,0-44.8-20.1-44.8-44.8V89.4c0-24.7,20.1-44.8,44.8-44.8h144.9
		c11.4,0,22.3,4.3,30.6,12.1l60.5,56.7c9,8.4,14.1,20.3,14.1,32.6v19.2c0,7.7-6.2,13.9-13.9,13.9s-13.9-6.2-13.9-13.9v-19.2
		c0-4.7-2-9.2-5.4-12.4L309.8,77c-3.2-3-7.3-4.6-11.6-4.6H153.3c-9.3,0-16.9,7.6-16.9,16.9v188.3c0,9.3,7.6,16.9,16.9,16.9h205.3
		c9.3,0,16.9-7.6,16.9-16.9v-50.5c0-7.7,6.2-13.9,13.9-13.9s13.9,6.2,13.9,13.9v50.5C403.4,302.3,383.3,322.4,358.7,322.4z"/>
	<path class="st0" d="M312.3,161.3H199.7c-7.7,0-13.9-6.2-13.9-13.9s6.2-13.9,13.9-13.9h112.6c7.7,0,13.9,6.2,13.9,13.9
		S320,161.3,312.3,161.3z"/>
	<path class="st0" d="M312.3,233.6H199.7c-7.7,0-13.9-6.2-13.9-13.9s6.2-13.9,13.9-13.9h112.6c7.7,0,13.9,6.2,13.9,13.9
		S320,233.6,312.3,233.6z"/>
</g>
<path class="st1" d="M293.5,453.4h-75.1c-10,0-18.1-8.1-18.1-18.1v-31.3c0-10,8.1-18.1,18.1-18.1h75.1c10,0,18.1,8.1,18.1,18.1v31.3
	C311.6,445.3,303.5,453.4,293.5,453.4z"/>
<g>
	<path class="st2" d="M293.5,467.4h-75.1c-17.6,0-32-14.3-32-32v-31.3c0-17.6,14.3-32,32-32h75.1c17.6,0,32,14.3,32,32v31.3
		C325.5,453,311.2,467.4,293.5,467.4z M218.5,399.9c-2.3,0-4.2,1.9-4.2,4.2v31.3c0,2.3,1.9,4.2,4.2,4.2h75.1c2.3,0,4.2-1.9,4.2-4.2
		v-31.3c0-2.3-1.9-4.2-4.2-4.2H218.5z"/>
	<path class="st2" d="M89.1,461.5c-7.7,0-13.9-6.2-13.9-13.9v-55.6c0-7.7,6.2-13.9,13.9-13.9s13.9,6.2,13.9,13.9v55.6
		C103,455.2,96.8,461.5,89.1,461.5z"/>
	<path class="st2" d="M422.9,461.5c-7.7,0-13.9-6.2-13.9-13.9v-55.6c0-7.7,6.2-13.9,13.9-13.9s13.9,6.2,13.9,13.9v55.6
		C436.8,455.2,430.6,461.5,422.9,461.5z"/>
</g>
</svg>
